<mxfile host="app.diagrams.net" modified="2021-07-21T09:13:30.285Z" agent="5.0 (Macintosh; Intel Mac OS X 10_15_7) AppleWebKit/537.36 (KHTML, like Gecko) Chrome/91.0.4472.101 Safari/537.36" etag="b2anGwWJiz_9oQZOwd0n" version="14.9.0" type="github">
  <diagram name="Page-1" id="13e1069c-82ec-6db2-03f1-153e76fe0fe0">
    <mxGraphModel dx="1426" dy="794" grid="1" gridSize="10" guides="1" tooltips="1" connect="1" arrows="1" fold="1" page="1" pageScale="1" pageWidth="1100" pageHeight="850" background="none" math="0" shadow="0">
      <root>
        <mxCell id="0" />
        <mxCell id="1" parent="0" />
        <mxCell id="7baba1c4bc27f4b0-2" value="&lt;pre style=&quot;background-color: #ffffff ; color: #080808 ; font-family: &amp;#34;jetbrains mono&amp;#34; , monospace ; font-size: 9.8pt&quot;&gt;&lt;span style=&quot;color: #000000&quot;&gt;ExoPlayerImpl&lt;/span&gt;&lt;/pre&gt;" style="shape=umlLifeline;perimeter=lifelinePerimeter;whiteSpace=wrap;html=1;container=1;collapsible=0;recursiveResize=0;outlineConnect=0;rounded=1;shadow=0;comic=0;labelBackgroundColor=none;strokeWidth=1;fontFamily=Verdana;fontSize=12;align=center;" parent="1" vertex="1">
          <mxGeometry x="221" y="80" width="110" height="880" as="geometry" />
        </mxCell>
        <mxCell id="7baba1c4bc27f4b0-10" value="" style="html=1;points=[];perimeter=orthogonalPerimeter;rounded=0;shadow=0;comic=0;labelBackgroundColor=none;strokeWidth=1;fontFamily=Verdana;fontSize=12;align=center;" parent="7baba1c4bc27f4b0-2" vertex="1">
          <mxGeometry x="51" y="100" width="10" height="70" as="geometry" />
        </mxCell>
        <mxCell id="v-lT6ij9Nv1rt77PiXW3-93" value="" style="html=1;verticalAlign=bottom;endArrow=open;dashed=1;endSize=8;labelBackgroundColor=none;fontFamily=Verdana;fontSize=12;edgeStyle=elbowEdgeStyle;elbow=vertical;" edge="1" parent="7baba1c4bc27f4b0-2">
          <mxGeometry relative="1" as="geometry">
            <mxPoint x="66" y="149" as="targetPoint" />
            <Array as="points">
              <mxPoint x="156" y="149" />
            </Array>
            <mxPoint x="206" y="149" as="sourcePoint" />
          </mxGeometry>
        </mxCell>
        <mxCell id="7baba1c4bc27f4b0-3" value="&lt;pre style=&quot;background-color: #ffffff ; color: #080808 ; font-family: &amp;#34;jetbrains mono&amp;#34; , monospace ; font-size: 9.8pt&quot;&gt;&lt;span style=&quot;color: #000000&quot;&gt;ExoPlayerImplInternal&lt;/span&gt;&lt;/pre&gt;" style="shape=umlLifeline;perimeter=lifelinePerimeter;whiteSpace=wrap;html=1;container=1;collapsible=0;recursiveResize=0;outlineConnect=0;rounded=1;shadow=0;comic=0;labelBackgroundColor=none;strokeWidth=1;fontFamily=Verdana;fontSize=12;align=center;" parent="1" vertex="1">
          <mxGeometry x="352" y="80" width="168" height="880" as="geometry" />
        </mxCell>
        <mxCell id="7baba1c4bc27f4b0-13" value="" style="html=1;points=[];perimeter=orthogonalPerimeter;rounded=0;shadow=0;comic=0;labelBackgroundColor=none;strokeWidth=1;fontFamily=Verdana;fontSize=12;align=center;" parent="7baba1c4bc27f4b0-3" vertex="1">
          <mxGeometry x="79" y="120" width="10" height="30" as="geometry" />
        </mxCell>
        <mxCell id="v-lT6ij9Nv1rt77PiXW3-4" value="MSG_PREPARE" style="edgeStyle=orthogonalEdgeStyle;html=1;align=left;spacingLeft=2;endArrow=block;rounded=0;exitX=1.1;exitY=0.6;exitDx=0;exitDy=0;exitPerimeter=0;" edge="1" parent="7baba1c4bc27f4b0-3" source="7baba1c4bc27f4b0-13" target="7baba1c4bc27f4b0-3">
          <mxGeometry relative="1" as="geometry">
            <mxPoint x="103" y="138" as="sourcePoint" />
            <Array as="points" />
            <mxPoint x="108" y="158" as="targetPoint" />
          </mxGeometry>
        </mxCell>
        <mxCell id="v-lT6ij9Nv1rt77PiXW3-7" value="" style="html=1;points=[];perimeter=orthogonalPerimeter;rounded=0;shadow=0;comic=0;labelBackgroundColor=none;strokeWidth=1;fontFamily=Verdana;fontSize=12;align=center;" vertex="1" parent="7baba1c4bc27f4b0-3">
          <mxGeometry x="79" y="188" width="10" height="52" as="geometry" />
        </mxCell>
        <mxCell id="v-lT6ij9Nv1rt77PiXW3-11" value="" style="html=1;points=[];perimeter=orthogonalPerimeter;rounded=0;shadow=0;comic=0;labelBackgroundColor=none;strokeWidth=1;fontFamily=Verdana;fontSize=12;align=center;" vertex="1" parent="7baba1c4bc27f4b0-3">
          <mxGeometry x="79" y="260" width="10" height="400" as="geometry" />
        </mxCell>
        <mxCell id="v-lT6ij9Nv1rt77PiXW3-14" value="prepareInternal" style="edgeStyle=orthogonalEdgeStyle;html=1;align=left;spacingLeft=2;endArrow=block;rounded=0;entryX=1;entryY=0;" edge="1" parent="7baba1c4bc27f4b0-3">
          <mxGeometry relative="1" as="geometry">
            <mxPoint x="85" y="170" as="sourcePoint" />
            <Array as="points">
              <mxPoint x="115" y="170" />
            </Array>
            <mxPoint x="90" y="190" as="targetPoint" />
          </mxGeometry>
        </mxCell>
        <mxCell id="v-lT6ij9Nv1rt77PiXW3-16" value="MSG_DO_SOME_WORK" style="edgeStyle=orthogonalEdgeStyle;html=1;align=left;spacingLeft=2;endArrow=block;rounded=0;" edge="1" parent="7baba1c4bc27f4b0-3">
          <mxGeometry relative="1" as="geometry">
            <mxPoint x="88" y="224" as="sourcePoint" />
            <Array as="points">
              <mxPoint x="108" y="224" />
              <mxPoint x="108" y="244" />
            </Array>
            <mxPoint x="88" y="244" as="targetPoint" />
          </mxGeometry>
        </mxCell>
        <mxCell id="v-lT6ij9Nv1rt77PiXW3-17" value="doSomeWork" style="edgeStyle=orthogonalEdgeStyle;html=1;align=left;spacingLeft=2;endArrow=block;rounded=0;entryX=1;entryY=0;" edge="1" parent="7baba1c4bc27f4b0-3">
          <mxGeometry relative="1" as="geometry">
            <mxPoint x="85" y="250" as="sourcePoint" />
            <Array as="points">
              <mxPoint x="115" y="250" />
              <mxPoint x="115" y="270" />
            </Array>
            <mxPoint x="90" y="270" as="targetPoint" />
          </mxGeometry>
        </mxCell>
        <mxCell id="v-lT6ij9Nv1rt77PiXW3-18" value="" style="html=1;points=[];perimeter=orthogonalPerimeter;rounded=0;shadow=0;comic=0;labelBackgroundColor=none;strokeWidth=1;fontFamily=Verdana;fontSize=12;align=center;" vertex="1" parent="7baba1c4bc27f4b0-3">
          <mxGeometry x="84" y="290" width="10" height="310" as="geometry" />
        </mxCell>
        <mxCell id="v-lT6ij9Nv1rt77PiXW3-20" value="updatePeriods" style="edgeStyle=orthogonalEdgeStyle;html=1;align=left;spacingLeft=2;endArrow=block;rounded=0;entryX=1.1;entryY=0.129;entryDx=0;entryDy=0;entryPerimeter=0;" edge="1" parent="7baba1c4bc27f4b0-3">
          <mxGeometry relative="1" as="geometry">
            <mxPoint x="93" y="280" as="sourcePoint" />
            <Array as="points">
              <mxPoint x="123" y="280" />
              <mxPoint x="123" y="299" />
            </Array>
            <mxPoint x="96" y="299.03" as="targetPoint" />
          </mxGeometry>
        </mxCell>
        <mxCell id="v-lT6ij9Nv1rt77PiXW3-21" value="maybeUpdateLoadingPeriod" style="edgeStyle=orthogonalEdgeStyle;html=1;align=left;spacingLeft=2;endArrow=block;rounded=0;" edge="1" parent="7baba1c4bc27f4b0-3">
          <mxGeometry relative="1" as="geometry">
            <mxPoint x="98" y="310" as="sourcePoint" />
            <Array as="points">
              <mxPoint x="132" y="310" />
              <mxPoint x="132" y="330" />
            </Array>
            <mxPoint x="98" y="330" as="targetPoint" />
          </mxGeometry>
        </mxCell>
        <mxCell id="v-lT6ij9Nv1rt77PiXW3-22" value="" style="html=1;points=[];perimeter=orthogonalPerimeter;rounded=0;shadow=0;comic=0;labelBackgroundColor=none;strokeWidth=1;fontFamily=Verdana;fontSize=12;align=center;" vertex="1" parent="7baba1c4bc27f4b0-3">
          <mxGeometry x="88" y="325" width="10" height="75" as="geometry" />
        </mxCell>
        <mxCell id="v-lT6ij9Nv1rt77PiXW3-23" value="queue.enqueueNextMediaPeriod" style="html=1;verticalAlign=bottom;endArrow=block;labelBackgroundColor=none;fontFamily=Verdana;fontSize=12;edgeStyle=elbowEdgeStyle;elbow=vertical;" edge="1" parent="7baba1c4bc27f4b0-3" target="v-lT6ij9Nv1rt77PiXW3-24">
          <mxGeometry relative="1" as="geometry">
            <mxPoint x="98" y="350" as="sourcePoint" />
            <mxPoint x="388" y="350" as="targetPoint" />
          </mxGeometry>
        </mxCell>
        <mxCell id="v-lT6ij9Nv1rt77PiXW3-26" value="mediaPeriod.prepare" style="html=1;verticalAlign=bottom;endArrow=block;labelBackgroundColor=none;fontFamily=Verdana;fontSize=12;edgeStyle=elbowEdgeStyle;elbow=vertical;" edge="1" parent="7baba1c4bc27f4b0-3" target="7baba1c4bc27f4b0-25">
          <mxGeometry relative="1" as="geometry">
            <mxPoint x="98" y="400" as="sourcePoint" />
            <mxPoint x="548" y="400" as="targetPoint" />
          </mxGeometry>
        </mxCell>
        <mxCell id="v-lT6ij9Nv1rt77PiXW3-62" value="queue.getPlayingPeriod" style="html=1;verticalAlign=bottom;endArrow=block;labelBackgroundColor=none;fontFamily=Verdana;fontSize=12;edgeStyle=elbowEdgeStyle;elbow=vertical;entryX=0.1;entryY=0.25;entryDx=0;entryDy=0;entryPerimeter=0;" edge="1" parent="7baba1c4bc27f4b0-3">
          <mxGeometry relative="1" as="geometry">
            <mxPoint x="96" y="423" as="sourcePoint" />
            <mxPoint x="386" y="423" as="targetPoint" />
          </mxGeometry>
        </mxCell>
        <mxCell id="v-lT6ij9Nv1rt77PiXW3-64" value="queue.getReadingPeriod" style="html=1;verticalAlign=bottom;endArrow=block;labelBackgroundColor=none;fontFamily=Verdana;fontSize=12;edgeStyle=elbowEdgeStyle;elbow=vertical;" edge="1" parent="7baba1c4bc27f4b0-3">
          <mxGeometry relative="1" as="geometry">
            <mxPoint x="95" y="470" as="sourcePoint" />
            <mxPoint x="385" y="470" as="targetPoint" />
          </mxGeometry>
        </mxCell>
        <mxCell id="v-lT6ij9Nv1rt77PiXW3-66" value="readingPeriodHolder" style="html=1;verticalAlign=bottom;endArrow=open;dashed=1;endSize=8;labelBackgroundColor=none;fontFamily=Verdana;fontSize=12;edgeStyle=elbowEdgeStyle;elbow=vertical;" edge="1" parent="7baba1c4bc27f4b0-3" source="7baba1c4bc27f4b0-5">
          <mxGeometry relative="1" as="geometry">
            <mxPoint x="98" y="500" as="targetPoint" />
            <Array as="points">
              <mxPoint x="188" y="500" />
            </Array>
            <mxPoint x="238" y="500" as="sourcePoint" />
          </mxGeometry>
        </mxCell>
        <mxCell id="v-lT6ij9Nv1rt77PiXW3-77" value="render.replaceStream" style="html=1;verticalAlign=bottom;endArrow=block;labelBackgroundColor=none;fontFamily=Verdana;fontSize=12;edgeStyle=elbowEdgeStyle;elbow=vertical;" edge="1" parent="7baba1c4bc27f4b0-3">
          <mxGeometry relative="1" as="geometry">
            <mxPoint x="97" y="570" as="sourcePoint" />
            <mxPoint x="527" y="570" as="targetPoint" />
          </mxGeometry>
        </mxCell>
        <mxCell id="v-lT6ij9Nv1rt77PiXW3-87" value="MSG_PERIOD_PREPARED" style="edgeStyle=orthogonalEdgeStyle;html=1;align=left;spacingLeft=2;endArrow=block;rounded=0;" edge="1" parent="7baba1c4bc27f4b0-3">
          <mxGeometry relative="1" as="geometry">
            <mxPoint x="94" y="730" as="sourcePoint" />
            <Array as="points">
              <mxPoint x="108" y="730" />
              <mxPoint x="108" y="750" />
            </Array>
            <mxPoint x="84" y="750" as="targetPoint" />
          </mxGeometry>
        </mxCell>
        <mxCell id="v-lT6ij9Nv1rt77PiXW3-88" value="" style="html=1;points=[];perimeter=orthogonalPerimeter;rounded=0;shadow=0;comic=0;labelBackgroundColor=none;strokeWidth=1;fontFamily=Verdana;fontSize=12;align=center;" vertex="1" parent="7baba1c4bc27f4b0-3">
          <mxGeometry x="78" y="780" width="10" height="60" as="geometry" />
        </mxCell>
        <mxCell id="v-lT6ij9Nv1rt77PiXW3-89" value="handlePeriodPrepared" style="edgeStyle=orthogonalEdgeStyle;html=1;align=left;spacingLeft=2;endArrow=block;rounded=0;entryX=1;entryY=0;" edge="1" parent="7baba1c4bc27f4b0-3">
          <mxGeometry relative="1" as="geometry">
            <mxPoint x="86" y="760" as="sourcePoint" />
            <Array as="points">
              <mxPoint x="116" y="760" />
            </Array>
            <mxPoint x="91" y="780" as="targetPoint" />
          </mxGeometry>
        </mxCell>
        <mxCell id="v-lT6ij9Nv1rt77PiXW3-91" value="render.render" style="html=1;verticalAlign=bottom;endArrow=block;labelBackgroundColor=none;fontFamily=Verdana;fontSize=12;edgeStyle=elbowEdgeStyle;elbow=vertical;" edge="1" parent="7baba1c4bc27f4b0-3">
          <mxGeometry relative="1" as="geometry">
            <mxPoint x="90" y="615" as="sourcePoint" />
            <mxPoint x="530" y="615" as="targetPoint" />
          </mxGeometry>
        </mxCell>
        <mxCell id="v-lT6ij9Nv1rt77PiXW3-92" value="MSG_DO_SOME_WORK" style="edgeStyle=orthogonalEdgeStyle;html=1;align=left;spacingLeft=2;endArrow=block;rounded=0;exitX=1.1;exitY=0.75;exitDx=0;exitDy=0;exitPerimeter=0;" edge="1" parent="7baba1c4bc27f4b0-3">
          <mxGeometry relative="1" as="geometry">
            <mxPoint x="90" y="833" as="sourcePoint" />
            <Array as="points">
              <mxPoint x="125" y="833" />
              <mxPoint x="125" y="853" />
            </Array>
            <mxPoint x="85" y="853" as="targetPoint" />
          </mxGeometry>
        </mxCell>
        <mxCell id="v-lT6ij9Nv1rt77PiXW3-97" value="return" style="html=1;verticalAlign=bottom;endArrow=open;dashed=1;endSize=8;labelBackgroundColor=none;fontFamily=Verdana;fontSize=12;edgeStyle=elbowEdgeStyle;elbow=vertical;" edge="1" parent="7baba1c4bc27f4b0-3">
          <mxGeometry relative="1" as="geometry">
            <mxPoint x="94" y="652" as="targetPoint" />
            <Array as="points">
              <mxPoint x="184" y="652" />
            </Array>
            <mxPoint x="524" y="652" as="sourcePoint" />
          </mxGeometry>
        </mxCell>
        <mxCell id="7baba1c4bc27f4b0-4" value="MediaSourceList" style="shape=umlLifeline;perimeter=lifelinePerimeter;whiteSpace=wrap;html=1;container=1;collapsible=0;recursiveResize=0;outlineConnect=0;rounded=1;shadow=0;comic=0;labelBackgroundColor=none;strokeWidth=1;fontFamily=Verdana;fontSize=12;align=center;" parent="1" vertex="1">
          <mxGeometry x="554" y="80" width="100" height="880" as="geometry" />
        </mxCell>
        <mxCell id="v-lT6ij9Nv1rt77PiXW3-25" value="mediaPeriod" style="html=1;verticalAlign=bottom;endArrow=open;dashed=1;endSize=8;labelBackgroundColor=none;fontFamily=Verdana;fontSize=12;edgeStyle=elbowEdgeStyle;elbow=vertical;" edge="1" parent="7baba1c4bc27f4b0-4" target="v-lT6ij9Nv1rt77PiXW3-22">
          <mxGeometry relative="1" as="geometry">
            <mxPoint x="46" y="380" as="targetPoint" />
            <Array as="points">
              <mxPoint x="136" y="380" />
            </Array>
            <mxPoint x="186" y="380" as="sourcePoint" />
          </mxGeometry>
        </mxCell>
        <mxCell id="7baba1c4bc27f4b0-5" value="MediaPeriodQueue" style="shape=umlLifeline;perimeter=lifelinePerimeter;whiteSpace=wrap;html=1;container=1;collapsible=0;recursiveResize=0;outlineConnect=0;rounded=1;shadow=0;comic=0;labelBackgroundColor=none;strokeWidth=1;fontFamily=Verdana;fontSize=12;align=center;" parent="1" vertex="1">
          <mxGeometry x="686" y="80" width="116" height="880" as="geometry" />
        </mxCell>
        <mxCell id="v-lT6ij9Nv1rt77PiXW3-24" value="" style="html=1;points=[];perimeter=orthogonalPerimeter;rounded=0;shadow=0;comic=0;labelBackgroundColor=none;strokeWidth=1;fontFamily=Verdana;fontSize=12;align=center;" vertex="1" parent="7baba1c4bc27f4b0-5">
          <mxGeometry x="54" y="348" width="10" height="32" as="geometry" />
        </mxCell>
        <mxCell id="v-lT6ij9Nv1rt77PiXW3-60" value="" style="html=1;points=[];perimeter=orthogonalPerimeter;rounded=0;shadow=0;comic=0;labelBackgroundColor=none;strokeWidth=1;fontFamily=Verdana;fontSize=12;align=center;" vertex="1" parent="7baba1c4bc27f4b0-5">
          <mxGeometry x="53" y="422" width="10" height="28" as="geometry" />
        </mxCell>
        <mxCell id="v-lT6ij9Nv1rt77PiXW3-65" value="" style="html=1;points=[];perimeter=orthogonalPerimeter;rounded=0;shadow=0;comic=0;labelBackgroundColor=none;strokeWidth=1;fontFamily=Verdana;fontSize=12;align=center;" vertex="1" parent="7baba1c4bc27f4b0-5">
          <mxGeometry x="53" y="467" width="10" height="33" as="geometry" />
        </mxCell>
        <mxCell id="v-lT6ij9Nv1rt77PiXW3-67" value="" style="html=1;points=[];perimeter=orthogonalPerimeter;rounded=0;shadow=0;comic=0;labelBackgroundColor=none;strokeWidth=1;fontFamily=Verdana;fontSize=12;align=center;" vertex="1" parent="7baba1c4bc27f4b0-5">
          <mxGeometry x="53" y="520" width="10" height="30" as="geometry" />
        </mxCell>
        <mxCell id="v-lT6ij9Nv1rt77PiXW3-78" value="" style="html=1;verticalAlign=bottom;endArrow=open;dashed=1;endSize=8;labelBackgroundColor=none;fontFamily=Verdana;fontSize=12;edgeStyle=elbowEdgeStyle;elbow=vertical;" edge="1" parent="7baba1c4bc27f4b0-5">
          <mxGeometry relative="1" as="geometry">
            <mxPoint x="-236" y="590" as="targetPoint" />
            <Array as="points">
              <mxPoint x="144" y="590" />
            </Array>
            <mxPoint x="194" y="590" as="sourcePoint" />
          </mxGeometry>
        </mxCell>
        <mxCell id="v-lT6ij9Nv1rt77PiXW3-99" value="" style="html=1;verticalAlign=bottom;endArrow=open;dashed=1;endSize=8;labelBackgroundColor=none;fontFamily=Verdana;fontSize=12;edgeStyle=elbowEdgeStyle;elbow=vertical;" edge="1" parent="7baba1c4bc27f4b0-5">
          <mxGeometry relative="1" as="geometry">
            <mxPoint x="-244.5" y="820" as="targetPoint" />
            <Array as="points">
              <mxPoint x="110" y="820" />
            </Array>
            <mxPoint x="192" y="820" as="sourcePoint" />
          </mxGeometry>
        </mxCell>
        <mxCell id="7baba1c4bc27f4b0-6" value="ProgressiveMediaPeriod&lt;br&gt;" style="shape=umlLifeline;perimeter=lifelinePerimeter;whiteSpace=wrap;html=1;container=1;collapsible=0;recursiveResize=0;outlineConnect=0;rounded=1;shadow=0;comic=0;labelBackgroundColor=none;strokeWidth=1;fontFamily=Verdana;fontSize=12;align=center;" parent="1" vertex="1">
          <mxGeometry x="970" y="80" width="146" height="880" as="geometry" />
        </mxCell>
        <mxCell id="v-lT6ij9Nv1rt77PiXW3-28" value="startLoading" style="edgeStyle=orthogonalEdgeStyle;html=1;align=left;spacingLeft=2;endArrow=block;rounded=0;entryX=1;entryY=0;" edge="1" parent="7baba1c4bc27f4b0-6">
          <mxGeometry relative="1" as="geometry">
            <mxPoint x="76" y="410" as="sourcePoint" />
            <Array as="points">
              <mxPoint x="106" y="410" />
            </Array>
            <mxPoint x="81" y="430" as="targetPoint" />
          </mxGeometry>
        </mxCell>
        <mxCell id="v-lT6ij9Nv1rt77PiXW3-29" value="loader.startLoading" style="html=1;verticalAlign=bottom;endArrow=block;entryX=0;entryY=0;labelBackgroundColor=none;fontFamily=Verdana;fontSize=12;edgeStyle=elbowEdgeStyle;elbow=vertical;" edge="1" parent="7baba1c4bc27f4b0-6">
          <mxGeometry relative="1" as="geometry">
            <mxPoint x="84" y="460" as="sourcePoint" />
            <mxPoint x="233" y="460.0000000000002" as="targetPoint" />
          </mxGeometry>
        </mxCell>
        <mxCell id="v-lT6ij9Nv1rt77PiXW3-80" value="" style="html=1;points=[];perimeter=orthogonalPerimeter;rounded=0;shadow=0;comic=0;labelBackgroundColor=none;strokeWidth=1;fontFamily=Verdana;fontSize=12;align=center;" vertex="1" parent="7baba1c4bc27f4b0-6">
          <mxGeometry x="67" y="696" width="10" height="40" as="geometry" />
        </mxCell>
        <mxCell id="v-lT6ij9Nv1rt77PiXW3-95" value="" style="html=1;verticalAlign=bottom;endArrow=open;dashed=1;endSize=8;labelBackgroundColor=none;fontFamily=Verdana;fontSize=12;edgeStyle=elbowEdgeStyle;elbow=vertical;" edge="1" parent="7baba1c4bc27f4b0-6">
          <mxGeometry relative="1" as="geometry">
            <mxPoint x="84" y="497" as="targetPoint" />
            <Array as="points">
              <mxPoint x="179" y="497" />
            </Array>
            <mxPoint x="229" y="497" as="sourcePoint" />
          </mxGeometry>
        </mxCell>
        <mxCell id="7baba1c4bc27f4b0-7" value="Loader" style="shape=umlLifeline;perimeter=lifelinePerimeter;whiteSpace=wrap;html=1;container=1;collapsible=0;recursiveResize=0;outlineConnect=0;rounded=1;shadow=0;comic=0;labelBackgroundColor=none;strokeWidth=1;fontFamily=Verdana;fontSize=12;align=center;" parent="1" vertex="1">
          <mxGeometry x="1156" y="80" width="100" height="880" as="geometry" />
        </mxCell>
        <mxCell id="v-lT6ij9Nv1rt77PiXW3-31" value="" style="html=1;points=[];perimeter=orthogonalPerimeter;rounded=0;shadow=0;comic=0;labelBackgroundColor=none;strokeWidth=1;fontFamily=Verdana;fontSize=12;align=center;" vertex="1" parent="7baba1c4bc27f4b0-7">
          <mxGeometry x="45" y="458" width="10" height="40" as="geometry" />
        </mxCell>
        <mxCell id="7baba1c4bc27f4b0-8" value="SimpleExoPlayer" style="shape=umlLifeline;perimeter=lifelinePerimeter;whiteSpace=wrap;html=1;container=1;collapsible=0;recursiveResize=0;outlineConnect=0;rounded=1;shadow=0;comic=0;labelBackgroundColor=none;strokeWidth=1;fontFamily=Verdana;fontSize=12;align=center;" parent="1" vertex="1">
          <mxGeometry x="100" y="80" width="100" height="880" as="geometry" />
        </mxCell>
        <mxCell id="7baba1c4bc27f4b0-9" value="" style="html=1;points=[];perimeter=orthogonalPerimeter;rounded=0;shadow=0;comic=0;labelBackgroundColor=none;strokeWidth=1;fontFamily=Verdana;fontSize=12;align=center;" parent="7baba1c4bc27f4b0-8" vertex="1">
          <mxGeometry x="45" y="100" width="10" height="90" as="geometry" />
        </mxCell>
        <mxCell id="v-lT6ij9Nv1rt77PiXW3-94" value="" style="html=1;verticalAlign=bottom;endArrow=open;dashed=1;endSize=8;labelBackgroundColor=none;fontFamily=Verdana;fontSize=12;edgeStyle=elbowEdgeStyle;elbow=vertical;" edge="1" parent="7baba1c4bc27f4b0-8">
          <mxGeometry relative="1" as="geometry">
            <mxPoint x="58" y="160" as="targetPoint" />
            <Array as="points">
              <mxPoint x="148" y="160" />
            </Array>
            <mxPoint x="168" y="160" as="sourcePoint" />
          </mxGeometry>
        </mxCell>
        <mxCell id="7baba1c4bc27f4b0-16" value="" style="html=1;points=[];perimeter=orthogonalPerimeter;rounded=0;shadow=0;comic=0;labelBackgroundColor=none;strokeWidth=1;fontFamily=Verdana;fontSize=12;align=center;" parent="1" vertex="1">
          <mxGeometry x="599" y="286" width="10" height="14" as="geometry" />
        </mxCell>
        <mxCell id="7baba1c4bc27f4b0-25" value="" style="html=1;points=[];perimeter=orthogonalPerimeter;rounded=0;shadow=0;comic=0;labelBackgroundColor=none;strokeColor=#000000;strokeWidth=1;fillColor=#FFFFFF;fontFamily=Verdana;fontSize=12;fontColor=#000000;align=center;" parent="1" vertex="1">
          <mxGeometry x="1038" y="477" width="10" height="103" as="geometry" />
        </mxCell>
        <mxCell id="7baba1c4bc27f4b0-11" value="player.prepare" style="html=1;verticalAlign=bottom;endArrow=block;entryX=0;entryY=0;labelBackgroundColor=none;fontFamily=Verdana;fontSize=12;edgeStyle=elbowEdgeStyle;elbow=vertical;" parent="1" source="7baba1c4bc27f4b0-9" target="7baba1c4bc27f4b0-10" edge="1">
          <mxGeometry relative="1" as="geometry">
            <mxPoint x="220" y="190" as="sourcePoint" />
          </mxGeometry>
        </mxCell>
        <mxCell id="7baba1c4bc27f4b0-14" value="internalPlayer.prepare" style="html=1;verticalAlign=bottom;endArrow=block;entryX=0;entryY=0;labelBackgroundColor=none;fontFamily=Verdana;fontSize=12;edgeStyle=elbowEdgeStyle;elbow=vertical;" parent="1" source="7baba1c4bc27f4b0-10" target="7baba1c4bc27f4b0-13" edge="1">
          <mxGeometry relative="1" as="geometry">
            <mxPoint x="370" y="200" as="sourcePoint" />
          </mxGeometry>
        </mxCell>
        <mxCell id="v-lT6ij9Nv1rt77PiXW3-9" value="" style="html=1;verticalAlign=bottom;endArrow=open;dashed=1;endSize=8;labelBackgroundColor=none;fontFamily=Verdana;fontSize=12;edgeStyle=elbowEdgeStyle;elbow=vertical;exitX=-0.1;exitY=1;exitDx=0;exitDy=0;exitPerimeter=0;" edge="1" parent="1" source="7baba1c4bc27f4b0-16">
          <mxGeometry relative="1" as="geometry">
            <mxPoint x="440" y="300" as="targetPoint" />
            <Array as="points">
              <mxPoint x="530" y="300" />
            </Array>
            <mxPoint x="580" y="300" as="sourcePoint" />
          </mxGeometry>
        </mxCell>
        <mxCell id="v-lT6ij9Nv1rt77PiXW3-15" value="mediaSourceList.prepare" style="html=1;verticalAlign=bottom;endArrow=block;labelBackgroundColor=none;fontFamily=Verdana;fontSize=12;edgeStyle=elbowEdgeStyle;elbow=vertical;entryX=0.1;entryY=0.633;entryDx=0;entryDy=0;entryPerimeter=0;exitX=1.2;exitY=0.465;exitDx=0;exitDy=0;exitPerimeter=0;" edge="1" parent="1">
          <mxGeometry relative="1" as="geometry">
            <mxPoint x="442" y="287.9949999999999" as="sourcePoint" />
            <mxPoint x="599" y="289.99" as="targetPoint" />
          </mxGeometry>
        </mxCell>
        <mxCell id="v-lT6ij9Nv1rt77PiXW3-27" value="" style="html=1;points=[];perimeter=orthogonalPerimeter;rounded=0;shadow=0;comic=0;labelBackgroundColor=none;strokeWidth=1;fontFamily=Verdana;fontSize=12;align=center;" vertex="1" parent="1">
          <mxGeometry x="1042" y="500" width="10" height="80" as="geometry" />
        </mxCell>
        <mxCell id="v-lT6ij9Nv1rt77PiXW3-34" value="" style="endArrow=open;endFill=1;endSize=12;html=1;entryX=0.1;entryY=1;entryDx=0;entryDy=0;entryPerimeter=0;" edge="1" parent="1">
          <mxGeometry width="160" relative="1" as="geometry">
            <mxPoint x="1208" y="578" as="sourcePoint" />
            <mxPoint x="1329" y="578" as="targetPoint" />
          </mxGeometry>
        </mxCell>
        <mxCell id="v-lT6ij9Nv1rt77PiXW3-38" value="loadable.load" style="edgeLabel;html=1;align=center;verticalAlign=middle;resizable=0;points=[];" vertex="1" connectable="0" parent="v-lT6ij9Nv1rt77PiXW3-34">
          <mxGeometry x="-0.2838" y="-2" relative="1" as="geometry">
            <mxPoint x="15" y="-12" as="offset" />
          </mxGeometry>
        </mxCell>
        <mxCell id="v-lT6ij9Nv1rt77PiXW3-39" value="ExtractingLoadable" style="shape=umlLifeline;perimeter=lifelinePerimeter;whiteSpace=wrap;html=1;container=1;collapsible=0;recursiveResize=0;outlineConnect=0;rounded=1;shadow=0;comic=0;labelBackgroundColor=none;strokeWidth=1;fontFamily=Verdana;fontSize=12;align=center;" vertex="1" parent="1">
          <mxGeometry x="1276" y="80" width="120" height="880" as="geometry" />
        </mxCell>
        <mxCell id="v-lT6ij9Nv1rt77PiXW3-40" value="" style="html=1;points=[];perimeter=orthogonalPerimeter;rounded=0;shadow=0;comic=0;labelBackgroundColor=none;strokeWidth=1;fontFamily=Verdana;fontSize=12;align=center;" vertex="1" parent="v-lT6ij9Nv1rt77PiXW3-39">
          <mxGeometry x="55" y="493" width="10" height="257" as="geometry" />
        </mxCell>
        <mxCell id="v-lT6ij9Nv1rt77PiXW3-43" value="dataSource.open" style="html=1;verticalAlign=bottom;endArrow=block;labelBackgroundColor=none;fontFamily=Verdana;fontSize=12;edgeStyle=elbowEdgeStyle;elbow=vertical;" edge="1" parent="v-lT6ij9Nv1rt77PiXW3-39">
          <mxGeometry relative="1" as="geometry">
            <mxPoint x="66" y="510" as="sourcePoint" />
            <mxPoint x="200" y="510" as="targetPoint" />
          </mxGeometry>
        </mxCell>
        <mxCell id="v-lT6ij9Nv1rt77PiXW3-45" value="length" style="html=1;verticalAlign=bottom;endArrow=open;dashed=1;endSize=8;labelBackgroundColor=none;fontFamily=Verdana;fontSize=12;edgeStyle=elbowEdgeStyle;elbow=vertical;" edge="1" parent="v-lT6ij9Nv1rt77PiXW3-39">
          <mxGeometry relative="1" as="geometry">
            <mxPoint x="65" y="540" as="targetPoint" />
            <Array as="points">
              <mxPoint x="155" y="540" />
            </Array>
            <mxPoint x="205" y="540" as="sourcePoint" />
          </mxGeometry>
        </mxCell>
        <mxCell id="v-lT6ij9Nv1rt77PiXW3-51" value="extractor.seek" style="html=1;verticalAlign=bottom;endArrow=block;labelBackgroundColor=none;fontFamily=Verdana;fontSize=12;edgeStyle=elbowEdgeStyle;elbow=vertical;" edge="1" parent="v-lT6ij9Nv1rt77PiXW3-39">
          <mxGeometry relative="1" as="geometry">
            <mxPoint x="68" y="640" as="sourcePoint" />
            <mxPoint x="488" y="640" as="targetPoint" />
          </mxGeometry>
        </mxCell>
        <mxCell id="v-lT6ij9Nv1rt77PiXW3-53" value="" style="html=1;verticalAlign=bottom;endArrow=open;dashed=1;endSize=8;labelBackgroundColor=none;fontFamily=Verdana;fontSize=12;edgeStyle=elbowEdgeStyle;elbow=vertical;" edge="1" parent="v-lT6ij9Nv1rt77PiXW3-39" source="v-lT6ij9Nv1rt77PiXW3-50">
          <mxGeometry relative="1" as="geometry">
            <mxPoint x="70" y="660" as="targetPoint" />
            <Array as="points">
              <mxPoint x="160" y="660" />
            </Array>
            <mxPoint x="210" y="660" as="sourcePoint" />
          </mxGeometry>
        </mxCell>
        <mxCell id="v-lT6ij9Nv1rt77PiXW3-41" value="DataSource" style="shape=umlLifeline;perimeter=lifelinePerimeter;whiteSpace=wrap;html=1;container=1;collapsible=0;recursiveResize=0;outlineConnect=0;rounded=1;shadow=0;comic=0;labelBackgroundColor=none;strokeWidth=1;fontFamily=Verdana;fontSize=12;align=center;" vertex="1" parent="1">
          <mxGeometry x="1425" y="80" width="120" height="880" as="geometry" />
        </mxCell>
        <mxCell id="v-lT6ij9Nv1rt77PiXW3-42" value="" style="html=1;points=[];perimeter=orthogonalPerimeter;rounded=0;shadow=0;comic=0;labelBackgroundColor=none;strokeWidth=1;fontFamily=Verdana;fontSize=12;align=center;" vertex="1" parent="v-lT6ij9Nv1rt77PiXW3-41">
          <mxGeometry x="55" y="507" width="10" height="40" as="geometry" />
        </mxCell>
        <mxCell id="v-lT6ij9Nv1rt77PiXW3-46" value="ExtractorHolder" style="shape=umlLifeline;perimeter=lifelinePerimeter;whiteSpace=wrap;html=1;container=1;collapsible=0;recursiveResize=0;outlineConnect=0;rounded=1;shadow=0;comic=0;labelBackgroundColor=none;strokeWidth=1;fontFamily=Verdana;fontSize=12;align=center;" vertex="1" parent="1">
          <mxGeometry x="1566" y="80" width="120" height="880" as="geometry" />
        </mxCell>
        <mxCell id="v-lT6ij9Nv1rt77PiXW3-47" value="" style="html=1;points=[];perimeter=orthogonalPerimeter;rounded=0;shadow=0;comic=0;labelBackgroundColor=none;strokeWidth=1;fontFamily=Verdana;fontSize=12;align=center;" vertex="1" parent="1">
          <mxGeometry x="1621" y="660" width="10" height="30" as="geometry" />
        </mxCell>
        <mxCell id="v-lT6ij9Nv1rt77PiXW3-48" value="extractorHolder.selectExtractor" style="html=1;verticalAlign=bottom;endArrow=block;labelBackgroundColor=none;fontFamily=Verdana;fontSize=12;edgeStyle=elbowEdgeStyle;elbow=vertical;" edge="1" parent="1">
          <mxGeometry relative="1" as="geometry">
            <mxPoint x="1344" y="660" as="sourcePoint" />
            <mxPoint x="1624" y="660" as="targetPoint" />
          </mxGeometry>
        </mxCell>
        <mxCell id="v-lT6ij9Nv1rt77PiXW3-49" value="extractor" style="html=1;verticalAlign=bottom;endArrow=open;dashed=1;endSize=8;labelBackgroundColor=none;fontFamily=Verdana;fontSize=12;edgeStyle=elbowEdgeStyle;elbow=vertical;" edge="1" parent="1">
          <mxGeometry relative="1" as="geometry">
            <mxPoint x="1341" y="690" as="targetPoint" />
            <Array as="points">
              <mxPoint x="1441" y="690" />
            </Array>
            <mxPoint x="1621" y="690" as="sourcePoint" />
          </mxGeometry>
        </mxCell>
        <mxCell id="v-lT6ij9Nv1rt77PiXW3-50" value="ExtractorHolder" style="shape=umlLifeline;perimeter=lifelinePerimeter;whiteSpace=wrap;html=1;container=1;collapsible=0;recursiveResize=0;outlineConnect=0;rounded=1;shadow=0;comic=0;labelBackgroundColor=none;strokeWidth=1;fontFamily=Verdana;fontSize=12;align=center;" vertex="1" parent="1">
          <mxGeometry x="1706" y="80" width="120" height="880" as="geometry" />
        </mxCell>
        <mxCell id="v-lT6ij9Nv1rt77PiXW3-52" value="" style="html=1;points=[];perimeter=orthogonalPerimeter;rounded=0;shadow=0;comic=0;labelBackgroundColor=none;strokeWidth=1;fontFamily=Verdana;fontSize=12;align=center;" vertex="1" parent="v-lT6ij9Nv1rt77PiXW3-50">
          <mxGeometry x="55" y="640" width="10" height="20" as="geometry" />
        </mxCell>
        <mxCell id="v-lT6ij9Nv1rt77PiXW3-58" value="" style="html=1;points=[];perimeter=orthogonalPerimeter;rounded=0;shadow=0;comic=0;labelBackgroundColor=none;strokeWidth=1;fontFamily=Verdana;fontSize=12;align=center;" vertex="1" parent="v-lT6ij9Nv1rt77PiXW3-50">
          <mxGeometry x="55" y="679" width="10" height="71" as="geometry" />
        </mxCell>
        <mxCell id="v-lT6ij9Nv1rt77PiXW3-57" value="internalPlayer.prepare" style="html=1;verticalAlign=bottom;endArrow=block;labelBackgroundColor=none;fontFamily=Verdana;fontSize=12;edgeStyle=elbowEdgeStyle;elbow=vertical;" edge="1" parent="1">
          <mxGeometry relative="1" as="geometry">
            <mxPoint x="1343" y="760" as="sourcePoint" />
            <mxPoint x="1763" y="760" as="targetPoint" />
          </mxGeometry>
        </mxCell>
        <mxCell id="v-lT6ij9Nv1rt77PiXW3-63" value="palyingPeriodHolder" style="html=1;verticalAlign=bottom;endArrow=open;dashed=1;endSize=8;labelBackgroundColor=none;fontFamily=Verdana;fontSize=12;edgeStyle=elbowEdgeStyle;elbow=vertical;" edge="1" parent="1">
          <mxGeometry relative="1" as="geometry">
            <mxPoint x="450" y="530" as="targetPoint" />
            <Array as="points">
              <mxPoint x="690" y="530" />
            </Array>
            <mxPoint x="740" y="530" as="sourcePoint" />
          </mxGeometry>
        </mxCell>
        <mxCell id="v-lT6ij9Nv1rt77PiXW3-68" value="queue.advancePlayingPeriod" style="html=1;verticalAlign=bottom;endArrow=block;labelBackgroundColor=none;fontFamily=Verdana;fontSize=12;edgeStyle=elbowEdgeStyle;elbow=vertical;" edge="1" parent="1">
          <mxGeometry relative="1" as="geometry">
            <mxPoint x="450" y="600" as="sourcePoint" />
            <mxPoint x="740" y="600" as="targetPoint" />
          </mxGeometry>
        </mxCell>
        <mxCell id="v-lT6ij9Nv1rt77PiXW3-69" value="playingPeriodHolder" style="html=1;verticalAlign=bottom;endArrow=open;dashed=1;endSize=8;labelBackgroundColor=none;fontFamily=Verdana;fontSize=12;edgeStyle=elbowEdgeStyle;elbow=vertical;" edge="1" parent="1">
          <mxGeometry x="0.0345" relative="1" as="geometry">
            <mxPoint x="450" y="630" as="targetPoint" />
            <Array as="points">
              <mxPoint x="540" y="630" />
            </Array>
            <mxPoint x="740" y="630" as="sourcePoint" />
            <mxPoint as="offset" />
          </mxGeometry>
        </mxCell>
        <mxCell id="v-lT6ij9Nv1rt77PiXW3-74" value="Render" style="shape=umlLifeline;perimeter=lifelinePerimeter;whiteSpace=wrap;html=1;container=1;collapsible=0;recursiveResize=0;outlineConnect=0;rounded=1;shadow=0;comic=0;labelBackgroundColor=none;strokeWidth=1;fontFamily=Verdana;fontSize=12;align=center;" vertex="1" parent="1">
          <mxGeometry x="826" y="80" width="120" height="880" as="geometry" />
        </mxCell>
        <mxCell id="v-lT6ij9Nv1rt77PiXW3-76" value="" style="html=1;points=[];perimeter=orthogonalPerimeter;rounded=0;shadow=0;comic=0;labelBackgroundColor=none;strokeWidth=1;fontFamily=Verdana;fontSize=12;align=center;" vertex="1" parent="v-lT6ij9Nv1rt77PiXW3-74">
          <mxGeometry x="55" y="569" width="10" height="21" as="geometry" />
        </mxCell>
        <mxCell id="v-lT6ij9Nv1rt77PiXW3-96" value="" style="html=1;points=[];perimeter=orthogonalPerimeter;rounded=0;shadow=0;comic=0;labelBackgroundColor=none;strokeWidth=1;fontFamily=Verdana;fontSize=12;align=center;" vertex="1" parent="v-lT6ij9Nv1rt77PiXW3-74">
          <mxGeometry x="54" y="612" width="10" height="40" as="geometry" />
        </mxCell>
        <mxCell id="v-lT6ij9Nv1rt77PiXW3-98" value="" style="html=1;points=[];perimeter=orthogonalPerimeter;rounded=0;shadow=0;comic=0;labelBackgroundColor=none;strokeWidth=1;fontFamily=Verdana;fontSize=12;align=center;" vertex="1" parent="v-lT6ij9Nv1rt77PiXW3-74">
          <mxGeometry x="55" y="800" width="10" height="20" as="geometry" />
        </mxCell>
        <mxCell id="v-lT6ij9Nv1rt77PiXW3-79" value="extractorOutput.endTracks" style="html=1;verticalAlign=bottom;endArrow=block;labelBackgroundColor=none;fontFamily=Verdana;fontSize=12;edgeStyle=elbowEdgeStyle;elbow=vertical;" edge="1" parent="1">
          <mxGeometry relative="1" as="geometry">
            <mxPoint x="1760" y="779" as="sourcePoint" />
            <mxPoint x="1050" y="779" as="targetPoint" />
          </mxGeometry>
        </mxCell>
        <mxCell id="v-lT6ij9Nv1rt77PiXW3-59" value="result" style="html=1;verticalAlign=bottom;endArrow=open;dashed=1;endSize=8;labelBackgroundColor=none;fontFamily=Verdana;fontSize=12;edgeStyle=elbowEdgeStyle;elbow=vertical;" edge="1" parent="1">
          <mxGeometry relative="1" as="geometry">
            <mxPoint x="1339" y="830" as="targetPoint" />
            <Array as="points">
              <mxPoint x="1429" y="830" />
            </Array>
            <mxPoint x="1759" y="830" as="sourcePoint" />
          </mxGeometry>
        </mxCell>
        <mxCell id="v-lT6ij9Nv1rt77PiXW3-82" value="" style="html=1;verticalAlign=bottom;endArrow=open;dashed=1;endSize=8;labelBackgroundColor=none;fontFamily=Verdana;fontSize=12;edgeStyle=elbowEdgeStyle;elbow=vertical;" edge="1" parent="1">
          <mxGeometry relative="1" as="geometry">
            <mxPoint x="1760" y="815" as="targetPoint" />
            <Array as="points">
              <mxPoint x="1118" y="815" />
            </Array>
            <mxPoint x="1048" y="815" as="sourcePoint" />
          </mxGeometry>
        </mxCell>
        <mxCell id="v-lT6ij9Nv1rt77PiXW3-84" value="" style="endArrow=open;endFill=1;endSize=12;html=1;" edge="1" parent="1">
          <mxGeometry width="160" relative="1" as="geometry">
            <mxPoint x="1038" y="790" as="sourcePoint" />
            <mxPoint x="439.5" y="790" as="targetPoint" />
            <Array as="points">
              <mxPoint x="943" y="790" />
            </Array>
          </mxGeometry>
        </mxCell>
        <mxCell id="v-lT6ij9Nv1rt77PiXW3-85" value="callback.onprepared" style="edgeLabel;html=1;align=center;verticalAlign=middle;resizable=0;points=[];" vertex="1" connectable="0" parent="v-lT6ij9Nv1rt77PiXW3-84">
          <mxGeometry x="-0.2838" y="-2" relative="1" as="geometry">
            <mxPoint x="15" y="-12" as="offset" />
          </mxGeometry>
        </mxCell>
        <mxCell id="v-lT6ij9Nv1rt77PiXW3-86" value="" style="html=1;points=[];perimeter=orthogonalPerimeter;rounded=0;shadow=0;comic=0;labelBackgroundColor=none;strokeWidth=1;fontFamily=Verdana;fontSize=12;align=center;" vertex="1" parent="1">
          <mxGeometry x="431" y="790" width="10" height="30" as="geometry" />
        </mxCell>
        <mxCell id="v-lT6ij9Nv1rt77PiXW3-90" value="render.enable" style="html=1;verticalAlign=bottom;endArrow=block;labelBackgroundColor=none;fontFamily=Verdana;fontSize=12;edgeStyle=elbowEdgeStyle;elbow=vertical;" edge="1" parent="1">
          <mxGeometry relative="1" as="geometry">
            <mxPoint x="439" y="881" as="sourcePoint" />
            <mxPoint x="883" y="881" as="targetPoint" />
          </mxGeometry>
        </mxCell>
      </root>
    </mxGraphModel>
  </diagram>
</mxfile>
